<?xml version="1.0" encoding="UTF-8" standalone="no"?>
<!-- Created with Inkscape (http://www.inkscape.org/) -->

<svg
   width="256"
   height="256"
   viewBox="0 0 256 256"
   version="1.1"
   id="svg1"
   inkscape:version="1.4.2 (ebf0e940d0, 2025-05-08)"
   sodipodi:docname="homeboxlogo.svg"
   xmlns:inkscape="http://www.inkscape.org/namespaces/inkscape"
   xmlns:sodipodi="http://sodipodi.sourceforge.net/DTD/sodipodi-0.dtd"
   xmlns="http://www.w3.org/2000/svg"
   xmlns:svg="http://www.w3.org/2000/svg">
  <sodipodi:namedview
     id="namedview1"
     pagecolor="#ffffff"
     bordercolor="#000000"
     borderopacity="0.25"
     inkscape:showpageshadow="2"
     inkscape:pageopacity="0.0"
     inkscape:pagecheckerboard="0"
     inkscape:deskcolor="#454545"
     inkscape:document-units="px"
     showgrid="true"
     inkscape:zoom="4.0178703"
     inkscape:cx="104.40855"
     inkscape:cy="161.52836"
     inkscape:window-width="2256"
     inkscape:window-height="1435"
     inkscape:window-x="0"
     inkscape:window-y="0"
     inkscape:window-maximized="1"
     inkscape:current-layer="layer1">
    <inkscape:grid
       type="axonomgrid"
       id="grid1"
       units="px"
       originx="128"
       originy="128"
       spacingx="3.7795276"
       spacingy="3.7795276"
       empcolor="#0099e5"
       empopacity="0.30196078"
       color="#0099e5"
       opacity="0.14901961"
       empspacing="25"
       dotted="false"
       gridanglex="30"
       gridanglez="30"
       enabled="true"
       visible="true" />
  </sodipodi:namedview>
  <defs
     id="defs1" />
  <g
     inkscape:label="Layer 1"
     inkscape:groupmode="layer"
     id="layer1">
    <g
       id="g12"
       inkscape:label="just lines">
      <path
         style="display:none;fill:none;stroke:#000000;stroke-width:2;stroke-dasharray:none;stroke-opacity:1"
         d="m 128.88019,128.09729 v 97.33304"
         id="path1"
         inkscape:label="path1" />
      <path
         style="display:none;fill:none;stroke:#000000;stroke-width:2;stroke-dasharray:none;stroke-opacity:1"
         d="m 210.82558,80.899155 -81.8964,47.282905"
         id="path2" />
      <path
         style="display:none;fill:none;stroke:#000000;stroke-width:2;stroke-dasharray:none;stroke-opacity:1"
         d="M 128.95117,128.56531 45.63263,80.461334"
         id="path3" />
    </g>
    <path
       style="display:inline;fill:#6a2571;fill-opacity:1;stroke:#000000;stroke-width:2;stroke-linejoin:round;stroke-dasharray:none;stroke-opacity:1"
       d="M 128.03056,222.87825 210.15815,175.59267 209.60511,79.915403 127.75404,33.182866 46.456013,80.744975 46.179489,175.59267 Z"
       id="path11"
       inkscape:label="bg"
       sodipodi:nodetypes="ccccccc" />
    <path
       style="display:inline;fill:#7b3030;fill-opacity:1;stroke:#000000;stroke-width:2;stroke-linejoin:round;stroke-dasharray:none;stroke-opacity:1"
       d="M 128.03056,224.21781 46.179489,176.93223 46.456013,82.084521 128.03056,129.59585 v 94.62196 l 82.12759,-47.28558 -0.55304,-95.677276 -81.57455,48.340896"
       id="path12"
       inkscape:label="fg"
       sodipodi:nodetypes="cccccccc" />
    <rect
       style="display:none;fill:#9e3535;fill-opacity:1;stroke:#000000;stroke-width:2.15362;stroke-dasharray:none;stroke-opacity:1"
       id="rect9"
       width="112.38844"
       height="95.288109"
       x="150.39417"
       y="205.33844"
       transform="matrix(0.86242835,-0.50617916,0,1,0,0)" />
    <path
       id="rect10"
       style="display:none;fill:#9e3535;stroke:#000000;stroke-width:2.15362"
       d="m 244.23034,203.94767 v 95.28811 z"
       sodipodi:nodetypes="ccc"
       transform="matrix(0.862428,-0.506179,0,1,0,0)" />
    <path
       style="font-weight:bold;font-size:96px;font-family:FreeSans;-inkscape-font-specification:FreeSans;display:none;stroke:#000000;stroke-width:1.43201"
       d="m 163.45968,189.24909 c -2.28477,1.34108 -4.50653,2.17809 -6.66457,2.5096 -2.15732,0.33223 -4.28386,0.0609 -6.37817,-0.81267 -2.09432,-0.79548 -3.77621,-2.88478 -5.04569,-6.2679 -1.26876,-3.38313 -1.90386,-7.91687 -1.90386,-13.60267 V 132.7563 l 69.40022,-40.732531 v 37.968751 c 0,5.29629 -0.63438,10.22455 -1.90386,14.78622 -1.26948,4.63899 -2.91915,8.48895 -4.95046,11.55059 -1.96758,3.10173 -3.90294,5.63997 -5.8068,7.614 -1.90457,1.97402 -3.77621,3.50126 -5.61706,4.58171 -2.98287,1.75064 -5.58484,2.38215 -7.8066,1.89455 -2.15732,-0.52483 -4.31536,-2.25685 -6.4734,-5.19605 -4.50582,12.06898 -10.12288,20.0775 -16.84975,24.02555 z m 37.50793,-72.71675 -15.70772,9.21928 v 19.04215 c 0,8.25626 2.60196,10.85679 7.8066,7.80231 5.26765,-3.09171 7.90112,-8.76533 7.90112,-17.02159 z m -27.60773,16.20319 -17.99249,10.56036 v 20.91236 c 0,8.64504 2.98288,11.21693 8.94864,7.71495 6.02947,-3.53849 9.04385,-9.63026 9.04385,-18.27531 z"
       id="text4"
       inkscape:label="b"
       aria-label="B" />
    <path
       style="font-weight:bold;font-size:96px;font-family:FreeSans;-inkscape-font-specification:FreeSans;display:none;stroke:#000000;stroke-width:1.26161"
       d="m 81.943255,164.80717 v -29.49271 l 27.761335,16.29372 V 136.30041 L 48.562508,100.41473 v 15.30771 L 71.45932,129.16095 V 158.5521 L 48.562508,145.1134 v 15.40997 l 61.142082,35.8853 v -15.30778 z"
       id="text9"
       inkscape:label="h"
       aria-label="H" />
    <g
       id="g8"
       inkscape:label="g8"
       style="display:none">
      <text
         xml:space="preserve"
         style="font-size:96px;text-align:start;writing-mode:lr-tb;direction:ltr;text-anchor:start;fill:#000000;fill-opacity:1;stroke:#000000;stroke-width:2;stroke-dasharray:none;stroke-opacity:1"
         x="48.83717"
         y="195.34863"
         id="text7"
         inkscape:label="h"><tspan
           sodipodi:role="line"
           id="tspan7"
           x="48.83717"
           y="195.34863"
           style="font-style:normal;font-variant:normal;font-weight:bold;font-stretch:normal;font-family:FreeSans;-inkscape-font-specification:FreeSans;fill:#000000;fill-opacity:1">H</tspan></text>
      <text
         xml:space="preserve"
         style="font-style:normal;font-variant:normal;font-weight:normal;font-stretch:normal;font-size:96px;font-family:FreeSans;-inkscape-font-specification:FreeSans;text-align:start;writing-mode:lr-tb;direction:ltr;text-anchor:start;fill:#000000;fill-opacity:1;stroke:#000000;stroke-width:2;stroke-dasharray:none;stroke-opacity:1"
         x="141.08513"
         y="195.34863"
         id="text10"
         inkscape:label="b"><tspan
           sodipodi:role="line"
           id="tspan10"
           x="141.08513"
           y="195.34863"
           style="font-weight:bold;fill:#000000;fill-opacity:1">B</tspan></text>
    </g>
    <path
       style="font-weight:bold;font-size:96px;font-family:FreeSans;-inkscape-font-specification:FreeSans;stroke:#000000;stroke-width:1.32914"
       d="m 202.82417,152.033 c 0,2.08477 -0.44127,4.3709 -1.32382,6.85772 -0.88189,2.48683 -2.31604,5.26873 -4.30111,8.34504 -1.91198,3.03311 -4.81682,6.27223 -8.71388,9.71804 -3.89705,3.4458 -8.52978,6.74341 -13.89753,9.89415 l -36.17864,21.23374 v -63.32575 l 35.84768,-21.03963 c 5.00025,-2.93475 9.30202,-4.88035 12.90467,-5.83693 3.67708,-0.99965 6.39783,-1.09083 8.16227,-0.27347 1.83821,0.71627 3.16204,1.70575 3.97082,2.96831 0.80879,1.26262 1.21351,2.73358 1.21351,4.41302 0,2.72176 -0.846,5.59271 -2.53734,8.61186 -1.69133,2.962 -4.52175,6.59256 -8.49256,10.89167 8.89729,-1.1105 13.34593,1.40358 13.34593,7.54223 z m -47.8698,-6.12934 v 14.33282 l 17.97868,-10.55207 c 7.79476,-4.57492 11.69182,-9.23623 11.69182,-13.98526 0,-4.80619 -3.89706,-4.92249 -11.69182,-0.34757 z m 0,25.19127 v 16.41825 l 19.74378,-11.58814 c 8.16161,-4.7909 12.24275,-9.90811 12.24275,-15.35162 0,-5.50133 -4.08114,-5.85687 -12.24275,-1.06664 z"
       id="text8"
       inkscape:label="b"
       aria-label="B" />
    <path
       style="font-weight:bold;font-size:96px;font-family:FreeSans;-inkscape-font-specification:FreeSans;display:inline;stroke:#000000;stroke-width:1.26814"
       d="m 71.747263,153.72504 30.155617,17.69883 v 27.4331 l 15.65142,9.18643 V 147.624 l -15.65142,-9.18642 v 22.6262 L 71.851631,143.42645 v -22.62633 l -15.755914,-9.24755 v 60.41978 l 15.651546,9.18579 z"
       id="text11"
       inkscape:label="h"
       aria-label="H"
       sodipodi:nodetypes="ccccccccccccc" />
    <circle
       style="fill:#000000;fill-opacity:1;stroke:#000000;stroke-width:2;stroke-linejoin:round;stroke-dasharray:none;stroke-opacity:1"
       id="path13"
       cx="128"
       cy="50.380512"
       r="6.1155534" />
    <path
       style="fill:#000000;fill-opacity:1;stroke:#000000;stroke-width:2;stroke-linejoin:round;stroke-dasharray:none;stroke-opacity:1"
       d="M 128,50.622502 V 85.445625"
       id="path14" />
    <path
       style="display:inline;fill:none;fill-opacity:1;stroke:#000000;stroke-width:2;stroke-linejoin:round;stroke-dasharray:none;stroke-opacity:1"
       d="m 46.456013,102.08452 81.574547,47.51133 81.57455,-48.3409"
       id="path4"
       inkscape:label="brick lines?"
       sodipodi:nodetypes="ccc" />
    <path
       style="display:inline;fill:none;fill-opacity:1;stroke:#000000;stroke-width:2;stroke-linejoin:round;stroke-dasharray:none;stroke-opacity:1"
       d="m 46.456013,122.08452 81.574547,47.51133 81.57455,-48.3409"
       id="path5"
       inkscape:label="brick lines?"
       sodipodi:nodetypes="ccc" />
    <path
       style="display:inline;fill:none;fill-opacity:1;stroke:#000000;stroke-width:2;stroke-linejoin:round;stroke-dasharray:none;stroke-opacity:1"
       d="m 46.456013,142.08452 81.574547,47.51133 81.57455,-48.3409"
       id="path6"
       inkscape:label="brick lines?"
       sodipodi:nodetypes="ccc" />
  </g>
</svg>
